<?xml version="1.0" ?><!DOCTYPE svg  PUBLIC '-//W3C//DTD SVG 1.1//EN'  'http://www.w3.org/Graphics/SVG/1.1/DTD/svg11.dtd'><svg height="100%" style="fill-rule:evenodd;clip-rule:evenodd;stroke-linejoin:round;stroke-miterlimit:2;" version="1.1" viewBox="0 0 32 32" width="100%" xml:space="preserve" xmlns="http://www.w3.org/2000/svg" xmlns:serif="http://www.serif.com/" xmlns:xlink="http://www.w3.org/1999/xlink"><path d="M4.5,14.999c-0.276,0 -0.5,0.224 -0.5,0.5l0,5c0,3.587 2.913,6.501 6.5,6.501c3.313,-0 4.505,-0.007 4.505,-0.007c0.275,-0.001 0.497,-0.225 0.497,-0.5l0,-1.994c0,-0.274 -0.222,-0.498 -0.496,-0.5l-4.005,-0.025c-2.207,-0 -4,-1.794 -4,-3.974c0,-2.454 -0.001,-4.501 -0.001,-4.501c0,-0.276 -0.224,-0.5 -0.5,-0.5l-2,0Zm-0.5,-6l0,2.5c0,0.276 0.224,0.5 0.5,0.5l2,0c0.276,0 0.5,-0.224 0.5,-0.5l0,-2.5c0,-0.828 -0.671,-1.5 -1.5,-1.5c-0.44,0 -0.779,0.158 -1.06,0.44c-0.282,0.281 -0.44,0.662 -0.44,1.06Z" style="fill:#8ac4d0;"/><path d="M5.498,14.999l-0.998,0c-0.276,0 -0.5,0.224 -0.5,0.5l0,5c0,3.587 2.913,6.501 6.5,6.501l0.945,-0c-3.563,-0.029 -6.447,-2.932 -6.447,-6.501l0,-5c0,-0.276 0.224,-0.5 0.5,-0.5Zm0,-3c-0.276,0 -0.5,-0.224 -0.5,-0.5l0,-2.5c0,-0.398 0.158,-0.779 0.439,-1.06c0.163,-0.163 0.344,-0.284 0.554,-0.358c-0.154,-0.053 -0.319,-0.082 -0.491,-0.082c-0.44,0 -0.779,0.158 -1.06,0.44c-0.282,0.281 -0.44,0.662 -0.44,1.06l0,2.5c0,0.276 0.224,0.5 0.5,0.5l0.998,0Z" style="fill:#4ca4b6;"/><path d="M8.002,14.499l-0,-2c-0,-0.828 -0.672,-1.5 -1.5,-1.5c-0.611,0 -1.39,0 -2.001,0c-0.828,0 -1.5,0.672 -1.5,1.5l0,2c0,0.829 0.672,1.5 1.5,1.5c0.611,0 1.39,0 2.001,0c0.828,0 1.5,-0.671 1.5,-1.5Z" style="fill:#28527a;"/><path d="M6.502,10.999c-0.611,0 -1.39,0 -2.001,0c-0.828,0 -1.5,0.672 -1.5,1.5l0,2c0,0.829 0.672,1.5 1.5,1.5l1.002,0c-0.829,0 -1.5,-0.671 -1.5,-1.5l-0,-2c-0,-0.828 0.671,-1.5 1.5,-1.5l0.999,0Z" style="fill:#063c6f;"/><path d="M14.051,21.219l1.002,2.005c0.085,0.169 0.258,0.276 0.448,0.276l7.002,0c0.19,0 0.363,-0.107 0.448,-0.277l0.999,-2.005c0.055,-0.113 0.068,-0.247 0.025,-0.377l-0.5,-1.495c-0.014,-0.042 -1.189,-3.292 -4.474,-3.292c-4.086,0 -4.46,3.248 -4.475,3.292l-0.5,1.495c-0.043,0.13 -0.03,0.264 0.025,0.378Z" style="fill:#8ac4d0;"/><path d="M15.361,20l7.279,0.004c0,0 0.386,1.155 0.386,1.155c0.069,0.204 0.26,0.341 0.475,0.341c3.028,0 5.5,-2.57 5.5,-5.75c-0,-3.193 -1.959,-5.75 -5,-5.75l-9.498,-0c-3.028,-0 -5.5,2.57 -5.5,5.75c0,3.18 2.468,5.75 5.497,5.75c0.215,-0 0.406,-0.137 0.474,-0.341c0.192,-0.572 0.313,-0.934 0.387,-1.159Z" style="fill:#28527a;"/><path d="M16.358,20.001l0,-0.001l-0,0.001Zm-0.858,-10.001l-0.997,-0c-3.028,-0 -5.5,2.57 -5.5,5.75c0,3.18 2.468,5.75 5.497,5.75c0.082,-0 0.16,-0.02 0.229,-0.056c-2.667,-0.39 -4.729,-2.787 -4.729,-5.694c0,-3.18 2.471,-5.75 5.5,-5.75Z" style="fill:#063c6f;"/><path d="M24.001,10l-0.5,-0c3.041,-0 4.999,2.557 4.999,5.75c0,3.045 -2.265,5.53 -5.116,5.736c0.037,0.009 0.077,0.014 0.117,0.014c3.028,0 5.5,-2.57 5.5,-5.75c-0,-3.193 -1.959,-5.75 -5,-5.75Z" style="fill:#3d668e;"/><path d="M18.418,17.775c0.107,-0.163 0.352,-0.204 0.582,-0.204c0.23,0.001 0.476,0.044 0.583,0.207c0.765,1.162 1.895,2.112 3.418,2.112c2.374,-0 4.296,-1.883 4.296,-4.192c-0,-2.31 -1.922,-4.194 -4.297,-4.194c-2.095,-0 -5.904,-0.001 -7.999,-0.001c-2.375,-0 -4.296,1.882 -4.296,4.192c-0,2.309 1.921,4.192 4.296,4.192c1.522,-0 2.652,-0.95 3.417,-2.112Z" style="fill:#fbeeac;"/><path d="M19.498,17.69c0.034,0.025 0.062,0.054 0.085,0.088c0.765,1.162 1.895,2.112 3.418,2.112c0.178,-0 0.354,-0.011 0.527,-0.032c-1.286,-0.173 -2.262,-1.042 -2.946,-2.08c-0.107,-0.163 -0.352,-0.206 -0.583,-0.207c-0.183,-0 -0.376,0.026 -0.501,0.119Zm-3.516,-6.187l-0.981,-0c-2.375,-0 -4.296,1.882 -4.296,4.192c-0,2.309 1.921,4.192 4.296,4.192c0.161,-0 0.319,-0.011 0.472,-0.032c-2.126,-0.254 -3.769,-2.024 -3.769,-4.16c-0,-2.304 1.912,-4.183 4.278,-4.192Z" style="fill:#e1d286;"/><path d="M23,11.504c-2.095,-0 -2.502,-0 -0.587,-0c2.375,-0 4.297,1.884 4.297,4.194c-0,2.208 -1.757,4.026 -3.987,4.181c0.091,0.007 0.183,0.011 0.278,0.011c2.374,-0 4.296,-1.883 4.296,-4.192c-0,-2.31 -1.922,-4.194 -4.297,-4.194Z" style="fill:#fff7d0;"/><path d="M17.002,22.317l4,-0l0.022,-0.003c0.095,-0.015 0.478,-0.098 0.478,-0.509l0,-0.805c0,-0.398 -0.158,-0.779 -0.439,-1.061c-0.281,-0.281 -0.663,-0.439 -1.061,-0.439c-0.611,0 -1.389,-0 -2,0c-0.398,-0 -0.78,0.158 -1.061,0.439c-0.281,0.282 -0.439,0.663 -0.439,1.061l-0,0.805c-0,0.469 0.5,0.512 0.5,0.512Z" style="fill:#28527a;"/><path d="M19.003,20.998c-2.484,-0 -4.501,2.016 -4.501,4.501c0,2.484 2.017,4.501 4.501,4.501c2.484,-0 4.5,-2.017 4.5,-4.501c0,-2.485 -2.016,-4.501 -4.5,-4.501Z" style="fill:#28527a;"/><path d="M19.501,29.973c-2.25,-0.249 -4.002,-2.158 -4.002,-4.474c-0,-2.316 1.752,-4.226 4.002,-4.474c-0.164,-0.018 -0.33,-0.027 -0.498,-0.027c-2.484,-0 -4.501,2.016 -4.501,4.501c0,2.484 2.017,4.501 4.501,4.501c0.168,-0 0.334,-0.009 0.498,-0.027Z" style="fill:#063c6f;"/><path d="M18.751,21.005c2.367,0.13 4.249,2.094 4.249,4.494c0,2.4 -1.882,4.363 -4.249,4.494c0.083,0.005 0.167,0.007 0.252,0.007c2.484,-0 4.5,-2.017 4.5,-4.501c0,-2.485 -2.016,-4.501 -4.5,-4.501c-0.085,-0 -0.169,0.002 -0.252,0.007Z" style="fill:#3d668e;"/><path d="M19.001,23.001c-1.379,0 -2.499,1.12 -2.499,2.5c-0,1.379 1.12,2.499 2.499,2.499c1.38,-0 2.5,-1.12 2.5,-2.499c-0,-1.38 -1.12,-2.5 -2.5,-2.5Z" style="fill:#8ac4d0;"/><path d="M6.501,3c-1.104,-0 -2,0.896 -2,2c0,1.104 0.896,2 2,2c1.104,-0 2,-0.896 2,-2c0,-1.104 -0.896,-2 -2,-2Zm3.999,-1.004c-0.828,0 -1.5,0.673 -1.5,1.5c0,0.828 0.672,1.5 1.5,1.5c0.828,0 1.5,-0.672 1.5,-1.5c0,-0.827 -0.672,-1.5 -1.5,-1.5Z" style="fill:#8ac4d0;"/><path d="M7.001,6.937c-0.863,-0.222 -1.501,-1.006 -1.501,-1.937c0,-0.931 0.638,-1.715 1.501,-1.937c-0.16,-0.041 -0.327,-0.063 -0.5,-0.063c-1.104,-0 -2,0.896 -2,2c0,1.104 0.896,2 2,2c0.173,-0 0.34,-0.022 0.5,-0.063Zm1.999,-3.441c0,1.058 0.952,1.5 1.5,1.5c0.175,0 0.343,-0.03 0.499,-0.085c-0.582,-0.206 -1,-0.762 -1,-1.415c-0,-0.652 0.418,-1.208 1,-1.414c-0.156,-0.055 -0.324,-0.086 -0.499,-0.086c-0.828,0 -1.5,0.673 -1.5,1.5Z" style="fill:#4ca4b6;"/></svg>